<svg id="Capa_1" enable-background="new 0 0 512 512" height="512" viewBox="0 0 512 512" width="512" xmlns="http://www.w3.org/2000/svg"><path d="m119.213 418.947.188 47.424c36.727 21.982 79.682 34.629 125.599 34.629 72.741 0 138.066-31.712 182.938-82.053z" fill="#74727f"/><path d="m194.561 418.947c48.465 0 54.49 66.064 14.837 79.473 11.623 1.694 23.508 2.58 35.602 2.58 72.741 0 138.066-31.712 182.938-82.053z" fill="#5f5e6a"/><path d="m245 11c-46.605 0-90.17 13.016-127.261 35.607l1.474 372.341h308.724c38.596-43.301 62.063-100.38 62.063-162.948 0-135.31-109.69-245-245-245z" fill="#9f66d8"/><path d="m178.377 313.666h-21.711l-2.28 2.28c-3.975 3.975-9.559 10.108-15.138 9.421l-77.872-9.595c-20.762-9.949-41.364-23.569-60.634-40.594 2.145 27.696 8.906 54.094 19.497 78.443h101.699c5.611 0 10.628 3.497 12.569 8.762l6.052 16.41h46.142l.377-2.106v-54.319c.002-4.806-3.894-8.702-8.701-8.702z" fill="#ffc743"/><path d="m66.962 323.462.231-6.973-5.815-.717c-20.677-9.908-41.193-23.46-60.396-40.387h-.22c2.162 27.621 8.915 53.948 19.479 78.236h45.395c.111-.199.221-.39.323-.563.555-.935.416-2.119-.313-2.926-13.993-15.51 1.316-26.67 1.316-26.67z" fill="#fbb031"/><path d="m233.303 304.571h54.475v74.222h-54.475z" fill="#4b4a55"/><path d="m260.541 348.5c-15.043 0-27.238-12.195-27.238-27.238v57.531h54.475v-57.531c.001 15.043-12.194 27.238-27.237 27.238z" fill="#363540"/><path d="m31.754 376.687c3.751 6.613 7.815 13.024 12.145 19.234l31.535 31.682h59.127v-50.916z" fill="#21212b"/><path d="m43.898 395.922 26.571 26.695c-1.21-9.599.774-17.671 1.707-20.749.249-.82.051-1.705-.509-2.354-5.277-6.11-2.291-11.215-.333-13.495.625-.728.725-1.752.337-2.63-.523-1.184-.348-2.374-.016-3.304.388-1.085-.067-2.307-1.041-2.922-.247-.156-.475-.316-.708-.475h-38.152c3.75 6.612 7.814 13.023 12.144 19.234z"/><path d="m72.616 365.66c-14.84 0-28.475 5.251-39.154 13.986 3.253 5.553 6.724 10.962 10.387 16.226l5.577 5.603c6.177-5.49 14.296-8.839 23.19-8.839 19.282 0 34.968 15.687 34.968 34.968 0 8.953-3.393 17.12-8.947 23.311l5.539 5.565c5.263 3.7 10.672 7.207 16.226 10.495 8.84-10.711 14.157-24.432 14.157-39.371.001-34.156-27.788-61.944-61.943-61.944z" fill="#21212b"/><path d="m68.72 392.861c-.121-3.045 1.429-5.462 2.614-6.842.625-.728.725-1.752.337-2.63-.523-1.184-.348-2.374-.016-3.304.388-1.085-.067-2.307-1.041-2.922-5.043-3.184-7.192-7.005-7.8-10.712-11.015 1.761-21.074 6.424-29.352 13.196 3.253 5.553 6.724 10.962 10.387 16.226l5.577 5.603c5.262-4.678 11.935-7.792 19.294-8.615z"/><path d="m287.778 435.62v-58.932h-148.27l21.734 58.932c2.214 6.002-.148 12.565-5.314 15.889l.538 1.315h139.299c-6.97-2.544-10.552-10.249-7.987-17.204z" fill="#eeefeb"/><path d="m287.778 435.619v-58.932h-52.949c3.233 2.298 5.359 6.065 5.359 10.311v55.516c0 4.246-2.126 8.012-5.359 10.311h60.936c-6.97-2.545-10.552-10.25-7.987-17.206z" fill="#d6d6d0"/><path d="m72.616 392.636c-9.35 0-17.849 3.696-24.129 9.696 13.99 18.757 30.605 35.44 49.297 49.513 6.062-6.291 9.801-14.835 9.801-24.24-.001-19.282-15.688-34.969-34.969-34.969z" fill="#d6d6d0"/><path d="m72.176 401.868c.249-.82.051-1.705-.509-2.354-2.085-2.414-2.868-4.666-2.947-6.654-7.803.871-14.838 4.318-20.234 9.472 7.122 9.548 14.927 18.556 23.336 26.958-3.514-12.391-.789-23.652.354-27.422z" fill="#c6c6c1"/><path d="m72.616 384.739c-11.065 0-21.164 4.215-28.777 11.123 3.034 4.356 6.204 8.609 9.507 12.752 4.913-4.984 11.736-8.081 19.27-8.081 14.927 0 27.071 12.144 27.071 27.072 0 7.577-3.133 14.433-8.167 19.352 4.128 3.322 8.361 6.516 12.703 9.57 6.988-7.63 11.259-17.786 11.259-28.922-.001-23.637-19.23-42.866-42.866-42.866z" fill="#eeefeb"/><path d="m72.195 400.543c-.095-.373-.268-.728-.528-1.03-5.277-6.11-2.291-11.215-.333-13.495.313-.365.494-.804.548-1.263-10.777.182-20.6 4.351-28.044 11.106 3.034 4.356 6.204 8.609 9.507 12.752 4.822-4.89 11.483-7.956 18.85-8.07z" fill="#d6d6d0"/><path d="m312.788 376.687h130.565v50.917h-130.565z"/><path d="m434.702 189.264c-2.116-15.305-15.33-27.193-31.193-27.193h-85.232c-6.442 0-11.712 5.27-11.712 11.712v15.481z" fill="#eeefeb"/><path d="m388.832 173.783c0-6.441 5.27-11.712 11.712-11.712h-82.267c-6.442 0-11.712 5.27-11.712 11.712v15.481h97.748c-8.55 0-15.481-6.931-15.481-15.481z" fill="#d6d6d0"/><path d="m492.048 383.252c-4.53 0-8.214-3.518-8.214-7.842v-40.019c0-4.324 3.684-7.841 8.214-7.841h7.663v-23.711c0-5.561-.953-11.082-2.816-16.322l-28.998-81.524c-4.017-11.293-14.705-18.835-26.691-18.835h-136.147c-10.707 0-19.386 8.679-19.386 19.386v229.076l.799-.06 26.987-73.177c1.941-5.265 6.958-8.762 12.569-8.762h104.199c5.611 0 10.628 3.496 12.57 8.762l17.36 47.073h39.553v-26.203h-7.662z" fill="#ffc743"/><path d="m388.832 339.092v-137.768c0-6.49 4.157-12.042 9.933-14.166h-93.706c-10.707 0-19.386 8.679-19.386 19.386v229.076l.799-.06 26.987-73.177c1.941-5.265 6.958-8.762 12.569-8.762h73.847c-6.349-1.787-11.043-7.63-11.043-14.529z" fill="#fbb031"/><path d="m339.982 208.217h-27.51c-3.17 0-5.741 2.57-5.741 5.741v48.887c0 3.171 2.57 5.741 5.741 5.741h27.51c3.17 0 5.741-2.57 5.741-5.741v-48.887c0-3.171-2.57-5.741-5.741-5.741z" fill="#21212b"/><path d="m476.345 292.546c-2.437-6.976-9.002-25.05-28.291-79.496-1.028-2.89-3.781-4.833-6.85-4.833h-67.95c-3.032 0-5.49 2.458-5.49 5.49v49.388c0 3.032 2.458 5.49 5.49 5.49h34.071c2.227 0 4.233 1.345 5.079 3.405l8.217 20.016c1.565 3.812 5.277 6.3 9.397 6.3h42.23c2.987.001 5.082-2.94 4.097-5.76z" fill="#363540"/><path d="m373.254 208.217c-3.032 0-5.49 2.458-5.49 5.49v49.388c0 3.032 2.458 5.49 5.49 5.49h15.578v-60.368z" fill="#21212b"/><path d="m390.623 302.72h-12.169c-4.361 0-7.897-3.536-7.897-7.897s3.536-7.897 7.897-7.897h12.169c4.361 0 7.897 3.536 7.897 7.897s-3.536 7.897-7.897 7.897z" fill="#f7991e"/><path d="m378.128 489.548c-34.156 0-61.944-27.788-61.944-61.944s27.788-61.944 61.944-61.944 61.944 27.788 61.944 61.944-27.789 61.944-61.944 61.944zm0-96.912c-19.281 0-34.968 15.687-34.968 34.968s15.687 34.968 34.968 34.968 34.968-15.687 34.968-34.968-15.687-34.968-34.968-34.968z" fill="#21212b"/><path d="m410.835 459.14c-.301-1.818-1.836-3.157-3.665-3.386-2.53-.317-4.295-1.179-5.534-2.285-6.214 5.652-14.465 9.103-23.508 9.103-19.281 0-34.968-15.687-34.968-34.969 0-9.93 4.167-18.9 10.837-25.271-1.392-1.853-1.589-4.192-1.413-6.111.182-1.989-1.035-3.805-2.933-4.427-10.336-3.389-9.015-13.284-8.988-13.477-14.863 11.326-24.479 29.201-24.479 49.286 0 34.156 27.788 61.944 61.944 61.944 18.611 0 35.318-8.262 46.682-21.296-10.598.781-13.325-5.177-13.975-9.111z"/><circle cx="378.128" cy="427.604" fill="#d6d6d0" r="34.968"/><path d="m401.635 453.47c-1.837-1.639-2.507-3.817-2.709-5.59-.211-1.854-1.646-3.303-3.487-3.606-28.228-4.64-32.438-26.561-32.987-35.227-.12-1.886-1.49-3.467-3.344-3.827-2.523-.491-4.119-1.566-5.111-2.887-6.67 6.371-10.837 15.341-10.837 25.271 0 19.281 15.687 34.969 34.968 34.969 9.042 0 17.293-3.451 23.507-9.103z" fill="#c6c6c1"/><path d="m378.128 470.469c-23.636 0-42.866-19.229-42.866-42.865s19.229-42.866 42.866-42.866c23.636 0 42.865 19.23 42.865 42.866s-19.229 42.865-42.865 42.865zm0-69.936c-14.927 0-27.072 12.144-27.072 27.072 0 14.927 12.144 27.071 27.072 27.071 14.927 0 27.071-12.144 27.071-27.071 0-14.928-12.144-27.072-27.071-27.072z" fill="#eeefeb"/><path d="m409.488 456.784c-.638-.55-1.442-.92-2.319-1.029-6.28-.786-7.905-4.906-8.243-7.875-.087-.761-.387-1.447-.83-2.02-4.953 5.413-12.071 8.815-19.969 8.815-14.927 0-27.072-12.144-27.072-27.071 0-8.568 4.005-16.213 10.237-21.177-.576-.602-1.324-1.04-2.185-1.207-6.062-1.179-6.825-5.71-6.524-8.998.085-.926-.144-1.81-.594-2.558-10.163 7.845-16.727 20.137-16.727 33.94 0 23.636 19.229 42.865 42.866 42.865 12.371 0 23.529-5.274 31.36-13.685z" fill="#d6d6d0"/><path d="m500.627 326.497h-8.579c-5.097 0-9.267 4.003-9.267 8.895v40.018c0 4.892 4.17 8.895 9.267 8.895h8.579c5.097 0 9.267-4.003 9.267-8.895v-40.018c0-4.892-4.17-8.895-9.267-8.895z" fill="#eb5793"/><path d="m500.627 358.383h-8.579c-5.097 0-9.267-4.003-9.267-8.895v25.922c0 4.892 4.17 8.895 9.267 8.895h8.579c5.097 0 9.267-4.003 9.267-8.895v-25.922c0 4.892-4.17 8.895-9.267 8.895z" fill="#e7387f"/><path d="m499.71 407.349h-65.163l14.98 40.509h50.182c6.759 0 12.29-5.531 12.29-12.29v-15.928c.001-6.76-5.53-12.291-12.289-12.291z" fill="#363540"/><path d="m482.781 435.569v-15.929c0-6.76 5.53-12.29 12.29-12.29h-60.523l14.98 40.509h45.543c-6.76 0-12.29-5.531-12.29-12.29z" fill="#21212b"/><path d="m470.583 435.619-27.786-75.343c-1.941-5.265-6.958-8.762-12.569-8.762-28.062 0-87.853 0-104.2 0-5.611 0-10.628 3.496-12.569 8.762l-27.786 75.343c-2.635 7.143 1.204 15.092 8.547 17.414 6.877 2.175 14.226-1.73 16.721-8.498l23.332-63.264c.657-1.78 2.353-2.963 4.251-2.963h79.206c1.898 0 3.594 1.183 4.251 2.963l23.462 63.618c2.564 6.953 10.275 10.491 17.204 7.934 6.944-2.56 10.496-10.262 7.936-17.204z" fill="#4b4a55"/><path d="m338.524 378.309c-20.528-8.871-12.497-26.794-12.497-26.794-5.611 0-10.628 3.496-12.569 8.762l-27.786 75.342c-2.635 7.143 1.204 15.092 8.547 17.415 6.877 2.175 14.226-1.73 16.721-8.498l23.332-63.264c.658-1.781 2.354-2.963 4.252-2.963z" fill="#363540"/><path d="m210.264 328.663c0-12.704 10.335-23.039 23.039-23.039 2.712 0 5.315.475 7.734 1.34.359-1.825-.236-4.388-1.79-7.365l-22.056-42.244-57.302 57.302 42.244 22.057c4.186 2.186 7.583 2.513 9.208.888l.522-.522c-1.028-2.611-1.599-5.448-1.599-8.417z" fill="#ffc743"/><path d="m219.193 310.469c-17.735-3.271-31.149-21.863-31.149-21.863l-2.016-.09-26.14 26.14 42.244 22.057c4.186 2.186 7.583 2.513 9.208.887l.522-.522c-1.028-2.609-1.598-5.446-1.598-8.415 0-7.391 3.502-13.975 8.929-18.194z" fill="#fbb031"/><path d="m224.798 251.852-70.412 70.412c-3.975 3.975-9.559 5.896-15.138 5.209l-77.872-9.595 159.036-159.035 9.594 77.872c.689 5.578-1.233 11.162-5.208 15.137z" fill="#eeefeb"/><path d="m139.249 327.472c5.579.687 11.163-1.234 15.138-5.209l33.658-33.658c-1.113-1.07-2.583-1.77-4.201-1.888-33.224-2.426-37.939-25.489-38.293-36.394-.096-2.979-2.123-5.47-4.974-6.338-1.472-.448-2.598-1.092-3.467-1.841l-75.732 75.732z" fill="#d6d6d0"/><path d="m0 256c0 7.244.333 14.409.949 21.493 19.21 16.934 39.743 30.473 60.428 40.385l159.035-159.036c-12.245-25.553-30.02-50.878-52.901-73.758-15.378-15.378-31.862-28.438-48.775-39.075-71.147 42.872-118.736 120.871-118.736 209.991z" fill="#d6d6d0"/><path d="m134.494 237.332c-.401-2.436-1.99-4.513-4.306-5.367-65.21-24.046-89.754-67.958-98.951-95.745-19.889 35.415-31.237 76.27-31.237 119.78 0 7.244.333 14.409.949 21.493 19.21 16.934 39.743 30.473 60.428 40.385l75.732-75.732c-1.649-1.421-2.354-3.223-2.615-4.814z" fill="#c6c6c1"/><path d="m55.793 323.462c-3.084-3.084-3.084-8.084 0-11.168l159.035-159.035c3.085-3.084 8.084-3.084 11.169 0 3.084 3.084 3.084 8.084 0 11.168l-159.035 159.035c-3.086 3.084-8.084 3.084-11.169 0z" fill="#fff"/><path d="m140.577 243.986c-4.266-1.298-5.684-4.225-6.083-6.654-.161-.98-.522-1.895-1.038-2.702l-77.664 77.664c-3.084 3.084-3.084 8.084 0 11.168 3.085 3.084 8.084 3.084 11.169 0l77.117-77.118c-.873-1.093-2.084-1.927-3.501-2.358z" fill="#eeefeb"/><ellipse cx="233.303" cy="328.662" fill="#fbb031" rx="24.091" ry="24.091" transform="matrix(.957 -.29 .29 .957 -85.23 81.71)"/><path d="m231.909 323.054c0-6.97 2.964-13.246 7.696-17.645-2.009-.543-4.12-.838-6.301-.838-13.305 0-24.091 10.786-24.091 24.091s10.786 24.091 24.091 24.091c6.335 0 12.095-2.449 16.396-6.447-10.249-2.77-17.791-12.128-17.791-23.252z" fill="#f7991e"/><path d="m136.614 360.277c-1.941-5.265-6.958-8.762-12.569-8.762-12.839 0-57.972 0-104.726 0 3.914 9.235 8.38 18.179 13.353 26.794h78.876c1.898 0 3.594 1.183 4.251 2.963l23.462 63.618c2.564 6.953 10.275 10.492 17.204 7.934 6.942-2.56 10.494-10.263 7.934-17.205z" fill="#4b4a55"/><path d="m32.672 378.309h38.91c-.198-.46-.526-.867-.968-1.147-12.604-7.958-7.157-19.889-4.656-24.105.283-.477.383-1.019.319-1.542-14.594 0-30.676 0-46.958 0 3.914 9.235 8.38 18.179 13.353 26.794z" fill="#363540"/></svg>