<svg height="512" viewBox="0 0 64 64" width="512" xmlns="http://www.w3.org/2000/svg"><path d="m59 39h-14a2 2 0 0 1 -2-2v-8h-4v24h20z" fill="#ffb655"/><path d="m44 50a2 2 0 0 1 -2-2v-19h-3v24h20v-3z" fill="#ff9811"/><path d="m36 32h-32l4 17h24c0-1.1 4-17 4-17z" fill="#ff9811"/><path d="m18 46h-4.624a3 3 0 0 1 -2.92-2.313l-2.75-11.687h-3.706l4 17h24a28.906 28.906 0 0 1 .6-3z" fill="#ee8700"/><path d="m53 45a2 2 0 0 0 2 2h4v-4h-4a2 2 0 0 0 -2 2z" fill="#d1e7f8"/><path d="m54.651 53a5.905 5.905 0 0 1 0 4h4.349a2 2 0 0 0 2-2v-2z" fill="#ff5023"/><path d="m43.349 53h-22.7a5.905 5.905 0 0 1 0 4h22.7a5.905 5.905 0 0 1 0-4z" fill="#ff5023"/><path d="m9.082 55.947a5.509 5.509 0 0 1 0-1.894c.007-.041.011-.083.019-.124a5.99 5.99 0 0 1 .248-.929h-4.349v2a2 2 0 0 0 2 2h2.349a5.99 5.99 0 0 1 -.248-.929c-.008-.041-.012-.083-.019-.124z" fill="#ff5023"/><path d="m12 38.5a1.5 1.5 0 0 0 3 0v-6.5h-3z" fill="#ffdaaa"/><path d="m26 38.5a1.5 1.5 0 0 0 3 0v-6.5h-3z" fill="#ffdaaa"/><path d="m28 49v4h11v-6h-9a2 2 0 0 0 -2 2z" fill="#ff7956"/><path d="m19 41.5a1.5 1.5 0 0 0 3 0v-9.5h-3z" fill="#ffdaaa"/><path d="m49 29h-6v8a2 2 0 0 0 2 2h14a10 10 0 0 0 -10-10z" fill="#d1d3d4"/><path d="m9.1 53.929c-.008.041-.012.083-.019.124.007-.041.013-.083.019-.124z" fill="#ffb655"/><path d="m9.082 55.947c.007.041.011.083.019.124-.007-.041-.013-.083-.019-.124z" fill="#ffb655"/><path d="m20.651 53h7.349v-4h-13a6 6 0 0 1 5.651 4z" fill="#ff7956"/><path d="m15 32h21v-7h6a4 4 0 0 0 4-4h-14v7h-29v4z" fill="#ff5023"/><path d="m21 55a6 6 0 0 1 -11.65 2 5.79 5.79 0 0 1 -.25-.93c-.01-.04-.01-.08-.02-.12a5.681 5.681 0 0 1 0-1.9c.01-.04.01-.08.02-.12a5.79 5.79 0 0 1 .25-.93 6 6 0 0 1 11.65 2z" fill="#58595b"/><g fill="#ffb655"><path d="m9.1 56.071a5.99 5.99 0 0 0 .249.929 5.628 5.628 0 0 1 -.249-.929z"/><path d="m9.35 53a5.99 5.99 0 0 0 -.248.929 5.628 5.628 0 0 1 .248-.929z"/><path d="m9.082 54.053a6.03 6.03 0 0 0 -.082.947 5.912 5.912 0 0 1 .082-.947z"/><path d="m9 55a6.03 6.03 0 0 0 .082.947 5.912 5.912 0 0 1 -.082-.947z"/></g><circle cx="15" cy="55" fill="#f1f2f2" r="2"/><path d="m55 55a6.024 6.024 0 1 1 -.35-2 6.049 6.049 0 0 1 .35 2z" fill="#58595b"/><circle cx="49" cy="55" fill="#f1f2f2" r="2"/><path d="m46 44h-2a1 1 0 0 1 0-2h2a1 1 0 0 1 0 2z"/><path d="m49 52a3 3 0 1 0 3 3 3 3 0 0 0 -3-3zm0 4a1 1 0 1 1 1-1 1 1 0 0 1 -1 1z"/><path d="m15 52a3 3 0 1 0 3 3 3 3 0 0 0 -3-3zm0 4a1 1 0 1 1 1-1 1 1 0 0 1 -1 1z"/><path d="m61 52h-1v-13a11.013 11.013 0 0 0 -11-11h-10a1 1 0 0 0 -1 1v17h-4.267l3.241-13.771a1.982 1.982 0 0 0 .026-.229v-6h5a5.006 5.006 0 0 0 5-5 1 1 0 0 0 -1-1h-14a1 1 0 0 0 -1 1v6h-28a1 1 0 0 0 -1 1v4a1 1 0 0 0 1 1h.208l3.818 16.229a1 1 0 0 0 .974.771h2.138a7.037 7.037 0 0 0 -1.453 2h-3.685a1 1 0 0 0 -1 1v2a3 3 0 0 0 3 3h1.685a6.985 6.985 0 0 0 12.63 0h21.37a6.985 6.985 0 0 0 12.63 0h3.685a3 3 0 0 0 3-3v-2a1 1 0 0 0 -1-1zm-52.92 4h-1.08a1 1 0 0 1 -1-1v-1h2.08a6.29 6.29 0 0 0 0 2zm35.92-26h5a9.011 9.011 0 0 1 8.941 8h-1.941v-2a1 1 0 0 0 -2 0v2h-9a1 1 0 0 1 -1-1zm-6 18v4h-9v-3a1 1 0 0 1 1-1zm-34-19h28a1 1 0 0 0 1-1v-6h11.829a3.006 3.006 0 0 1 -2.829 2h-6a1 1 0 0 0 -1 1v6h-31zm24 4v5.5a.5.5 0 0 1 -1 0v-5.5zm-7 0v8.5a.5.5 0 0 1 -1 0v-8.5zm-7 0v5.5a.5.5 0 0 1 -1 0v-5.5zm-5.208 15-3.529-15h5.737v5.5a2.5 2.5 0 0 0 5 0v-5.5h2v8.5a2.5 2.5 0 0 0 5 0v-8.5h2v5.5a2.5 2.5 0 0 0 5 0v-5.5h4.737l-3.059 13h-1.678a3 3 0 0 0 -2.816 2zm11.1 2h7.108v2h-5.685a7.033 7.033 0 0 0 -1.425-2zm-4.892 10a5 5 0 1 1 5-5 5.006 5.006 0 0 1 -5 5zm6.92-4a6.29 6.29 0 0 0 0-2h20.16a6.29 6.29 0 0 0 0 2zm27.08 4a5 5 0 1 1 5-5 5.006 5.006 0 0 1 -5 5zm0-12a7 7 0 0 0 -6.315 4h-2.685v-22h2v7a3 3 0 0 0 3 3h13v2h-3a3 3 0 0 0 0 6h3v4h-2.685a7 7 0 0 0 -6.315-4zm9-4v2h-3a1 1 0 0 1 0-2zm2 11a1 1 0 0 1 -1 1h-3.08a6.29 6.29 0 0 0 0-2h4.08z"/></svg>