<svg height="512" viewBox="0 0 64 64" width="512" xmlns="http://www.w3.org/2000/svg"><path d="m5 53h56a0 0 0 0 1 0 0v2a2 2 0 0 1 -2 2h-52a2 2 0 0 1 -2-2v-2a0 0 0 0 1 0 0z" fill="#ff5023"/><circle cx="15" cy="55" fill="#58595b" r="6"/><path d="m59 39h-14a2 2 0 0 1 -2-2v-8h-4v24h20z" fill="#ffb655"/><path d="m43 51a2 2 0 0 1 -2-2v-20h-2v24h20v-2z" fill="#ff9811"/><path d="m36 32h-32l4 17h24c0-1.1 4-17 4-17z" fill="#ff9811"/><path d="m18 46h-4.624a3 3 0 0 1 -2.92-2.313l-2.75-11.687h-3.706l4 17h24a28.906 28.906 0 0 1 .6-3z" fill="#ee8700"/><path d="m53 45a2 2 0 0 0 2 2h4v-4h-4a2 2 0 0 0 -2 2z" fill="#d1e7f8"/><path d="m12 38.5a1.5 1.5 0 0 0 3 0v-6.5h-3z" fill="#ffdaaa"/><path d="m26 38.5a1.5 1.5 0 0 0 3 0v-6.5h-3z" fill="#ffdaaa"/><path d="m28 49v4h11v-6h-9a2 2 0 0 0 -2 2z" fill="#939598"/><path d="m19 41.5a1.5 1.5 0 0 0 3 0v-9.5h-3z" fill="#ffdaaa"/><path d="m49 29h-6v8a2 2 0 0 0 2 2h14a10 10 0 0 0 -10-10z" fill="#d1d3d4"/><path d="m20.651 53h7.349v-4h-13a6 6 0 0 1 5.651 4z" fill="#cc7400"/><path d="m15 32h21v-7h6a4 4 0 0 0 4-4h-14v7h-29v4z" fill="#ff6243"/><circle cx="15" cy="55" fill="#f1f2f2" r="2"/><path d="m46 44h-2a1 1 0 0 1 0-2h2a1 1 0 0 1 0 2z" fill="#f1f2f2"/><path d="m54 35a1 1 0 0 1 1 1v3a0 0 0 0 1 0 0h-2a0 0 0 0 1 0 0v-3a1 1 0 0 1 1-1z" fill="#58595b"/><circle cx="49" cy="55" fill="#58595b" r="6"/><circle cx="49" cy="55" fill="#f1f2f2" r="2"/></svg>