<svg id="Layer_3" enable-background="new 0 0 64 64" height="512" viewBox="0 0 64 64" width="512" xmlns="http://www.w3.org/2000/svg"><path d="m2 49h60v13h-60z" fill="#a1cdfb"/><path d="m62 32h-60v12h60" fill="#8892a0"/><g fill="#78b75b"><circle cx="6" cy="22" r="4"/><circle cx="18" cy="22" r="4"/><circle cx="46" cy="22" r="4"/><circle cx="58" cy="22" r="4"/></g><path d="m18 14c2.209 0 4-1.791 4-4s-1.791-4-4-4c-.75 0-1.443.219-2.043.578-.217-2.561-2.34-4.578-4.957-4.578-2.761 0-5 2.239-5 5 0 .43.071.841.173 1.239-.36-.154-.756-.239-1.173-.239-1.657 0-3 1.343-3 3s1.343 3 3 3z" fill="#a1cdfb"/><path d="m58 14c2.209 0 4-1.791 4-4s-1.791-4-4-4c-.75 0-1.443.219-2.043.578-.217-2.561-2.34-4.578-4.957-4.578-2.761 0-5 2.239-5 5 0 .43.071.841.173 1.239-.36-.154-.756-.239-1.173-.239-1.657 0-3 1.343-3 3s1.343 3 3 3z" fill="#a1cdfb"/><path d="m7 63c-3.309 0-6-2.691-6-6h2c0 2.206 1.794 4 4 4s4-1.794 4-4h2c0 3.309-2.691 6-6 6z"/><path d="m17 63c-3.309 0-6-2.691-6-6h2c0 2.206 1.794 4 4 4s4-1.794 4-4h2c0 3.309-2.691 6-6 6z"/><path d="m27 63c-3.309 0-6-2.691-6-6h2c0 2.206 1.794 4 4 4s4-1.794 4-4h2c0 3.309-2.691 6-6 6z"/><path d="m37 63c-3.309 0-6-2.691-6-6h2c0 2.206 1.794 4 4 4s4-1.794 4-4h2c0 3.309-2.691 6-6 6z"/><path d="m47 63c-3.309 0-6-2.691-6-6h2c0 2.206 1.794 4 4 4s4-1.794 4-4h2c0 3.309-2.691 6-6 6z"/><path d="m57 63c-3.309 0-6-2.691-6-6h2c0 2.206 1.794 4 4 4s4-1.794 4-4h2c0 3.309-2.691 6-6 6z"/><path d="m7 55c-3.309 0-6-2.691-6-6h2c0 2.206 1.794 4 4 4s4-1.794 4-4h2c0 3.309-2.691 6-6 6z"/><path d="m17 55c-3.309 0-6-2.691-6-6h2c0 2.206 1.794 4 4 4s4-1.794 4-4h2c0 3.309-2.691 6-6 6z"/><path d="m27 55c-3.309 0-6-2.691-6-6h2c0 2.206 1.794 4 4 4s4-1.794 4-4h2c0 3.309-2.691 6-6 6z"/><path d="m37 55c-3.309 0-6-2.691-6-6h2c0 2.206 1.794 4 4 4s4-1.794 4-4h2c0 3.309-2.691 6-6 6z"/><path d="m47 55c-3.309 0-6-2.691-6-6h2c0 2.206 1.794 4 4 4s4-1.794 4-4h2c0 3.309-2.691 6-6 6z"/><path d="m57 55c-3.309 0-6-2.691-6-6h2c0 2.206 1.794 4 4 4s4-1.794 4-4h2c0 3.309-2.691 6-6 6z"/><path d="m1 43h62v2h-62z"/><path d="m1 31h62v2h-62z"/><path d="m1 37h2v2h-2z"/><path d="m57.133 39h-3.867v-2h3.867zm-7.733 0h-3.867v-2h3.867zm-7.733 0h-3.867v-2h3.867zm-7.733 0h-3.867v-2h3.867zm-7.734 0h-3.867v-2h3.867zm-7.733 0h-3.867v-2h3.867zm-7.734 0h-3.866v-2h3.867v2z"/><path d="m61 37h2v2h-2z"/><path d="m18 15h-13c-2.206 0-4-1.794-4-4s1.794-4 4-4c0-3.309 2.691-6 6-6 2.673 0 4.93 1.725 5.697 4.18.426-.119.865-.18 1.303-.18 2.757 0 5 2.243 5 5s-2.243 5-5 5zm-13-6c-1.103 0-2 .897-2 2s.897 2 2 2h13c1.654 0 3-1.346 3-3s-1.346-3-3-3c-.532 0-1.046.146-1.528.436-.295.178-.662.191-.97.033-.307-.157-.512-.462-.541-.806-.177-2.089-1.88-3.663-3.961-3.663-2.206 0-4 1.794-4 4 0 .298.045.612.142.991.094.368-.028.759-.317 1.007s-.692.312-1.043.161c-.249-.105-.512-.159-.782-.159z"/><path d="m58 15h-13c-2.206 0-4-1.794-4-4s1.794-4 4-4c0-3.309 2.691-6 6-6 2.673 0 4.93 1.725 5.697 4.18.426-.119.865-.18 1.303-.18 2.757 0 5 2.243 5 5s-2.243 5-5 5zm-13-6c-1.103 0-2 .897-2 2s.897 2 2 2h13c1.654 0 3-1.346 3-3s-1.346-3-3-3c-.532 0-1.046.146-1.528.436-.296.178-.662.191-.97.033-.307-.157-.512-.462-.541-.806-.177-2.089-1.88-3.663-3.961-3.663-2.206 0-4 1.794-4 4 0 .298.045.612.142.991.094.368-.028.759-.317 1.007-.288.248-.693.312-1.043.161-.249-.105-.512-.159-.782-.159z"/><path d="m6 27c-2.757 0-5-2.243-5-5s2.243-5 5-5 5 2.243 5 5-2.243 5-5 5zm0-8c-1.654 0-3 1.346-3 3s1.346 3 3 3 3-1.346 3-3-1.346-3-3-3z"/><path d="m5 23h2v9h-2z"/><path d="m18 27c-2.757 0-5-2.243-5-5s2.243-5 5-5 5 2.243 5 5-2.243 5-5 5zm0-8c-1.654 0-3 1.346-3 3s1.346 3 3 3 3-1.346 3-3-1.346-3-3-3z"/><path d="m17 23h2v9h-2z"/><path d="m46 27c-2.757 0-5-2.243-5-5s2.243-5 5-5 5 2.243 5 5-2.243 5-5 5zm0-8c-1.654 0-3 1.346-3 3s1.346 3 3 3 3-1.346 3-3-1.346-3-3-3z"/><path d="m45 23h2v9h-2z"/><path d="m58 27c-2.757 0-5-2.243-5-5s2.243-5 5-5 5 2.243 5 5-2.243 5-5 5zm0-8c-1.654 0-3 1.346-3 3s1.346 3 3 3 3-1.346 3-3-1.346-3-3-3z"/><path d="m57 23h2v9h-2z"/></svg>