<svg id="Layer_3" enable-background="new 0 0 64 64" height="512" viewBox="0 0 64 64" width="512" xmlns="http://www.w3.org/2000/svg"><path d="m2 49h60v13h-60z" fill="#a1cdfb"/><path d="m62 32h-60v12h60" fill="#8892a0"/><g fill="#78b75b"><circle cx="6" cy="22" r="4"/><circle cx="18" cy="22" r="4"/><circle cx="46" cy="22" r="4"/><circle cx="58" cy="22" r="4"/></g><path d="m18 14c2.209 0 4-1.791 4-4s-1.791-4-4-4c-.75 0-1.443.219-2.043.578-.217-2.561-2.34-4.578-4.957-4.578-2.761 0-5 2.239-5 5 0 .43.071.841.173 1.239-.36-.154-.756-.239-1.173-.239-1.657 0-3 1.343-3 3s1.343 3 3 3z" fill="#a1cdfb"/><path d="m58 14c2.209 0 4-1.791 4-4s-1.791-4-4-4c-.75 0-1.443.219-2.043.578-.217-2.561-2.34-4.578-4.957-4.578-2.761 0-5 2.239-5 5 0 .43.071.841.173 1.239-.36-.154-.756-.239-1.173-.239-1.657 0-3 1.343-3 3s1.343 3 3 3z" fill="#a1cdfb"/><path d="m57 60c-2.206 0-4-1.794-4-4h-2c0 2.206-1.794 4-4 4s-4-1.794-4-4h-2c0 2.206-1.794 4-4 4s-4-1.794-4-4h-2c0 2.206-1.794 4-4 4s-4-1.794-4-4h-2c0 2.206-1.794 4-4 4s-4-1.794-4-4h-2c0 2.206-1.794 4-4 4s-4-1.794-4-4h-2c0 3.309 2.691 6 6 6 2.086 0 3.924-1.071 5-2.69 1.076 1.62 2.914 2.69 5 2.69s3.924-1.071 5-2.69c1.076 1.62 2.914 2.69 5 2.69s3.924-1.071 5-2.69c1.076 1.62 2.914 2.69 5 2.69s3.924-1.071 5-2.69c1.076 1.62 2.914 2.69 5 2.69s3.924-1.071 5-2.69c1.076 1.62 2.914 2.69 5 2.69 3.309 0 6-2.691 6-6h-2c0 2.206-1.794 4-4 4z" fill="#66acd7"/><path d="m7 54c2.086 0 3.924-1.071 5-2.69 1.076 1.62 2.914 2.69 5 2.69s3.924-1.071 5-2.69c1.076 1.62 2.914 2.69 5 2.69s3.924-1.071 5-2.69c1.076 1.62 2.914 2.69 5 2.69s3.924-1.071 5-2.69c1.076 1.62 2.914 2.69 5 2.69s3.924-1.071 5-2.69c1.076 1.62 2.914 2.69 5 2.69 3.309 0 6-2.691 6-6h-2c0 2.206-1.794 4-4 4s-4-1.794-4-4h-2c0 2.206-1.794 4-4 4s-4-1.794-4-4h-2c0 2.206-1.794 4-4 4s-4-1.794-4-4h-2c0 2.206-1.794 4-4 4s-4-1.794-4-4h-2c0 2.206-1.794 4-4 4s-4-1.794-4-4h-2c0 2.206-1.794 4-4 4s-4-1.794-4-4h-2c0 3.309 2.691 6 6 6z" fill="#66acd7"/><path d="m2 37h1v2h-1z" fill="#f9d18b"/><path d="m57.133 39h-3.867v-2h3.867zm-7.733 0h-3.867v-2h3.867zm-7.733 0h-3.867v-2h3.867zm-7.733 0h-3.867v-2h3.867zm-7.734 0h-3.867v-2h3.867zm-7.733 0h-3.867v-2h3.867zm-7.734 0h-3.866v-2h3.867v2z" fill="#f9d18b"/><path d="m61 37h1v2h-1z" fill="#f9d18b"/><path d="m5 23h2v9h-2z" fill="#c18e59"/><path d="m17 23h2v9h-2z" fill="#c18e59"/><path d="m45 23h2v9h-2z" fill="#c18e59"/><path d="m57 23h2v9h-2z" fill="#c18e59"/></svg>