<svg height="512" viewBox="0 0 64 64" width="512" xmlns="http://www.w3.org/2000/svg"><path d="m55 38c0 .62-.02 1.24-.08 1.85a22.6 22.6 0 0 1 -1.74 7.13 23.008 23.008 0 0 1 -42.36 0 22.6 22.6 0 0 1 -1.74-7.13c-.06-.61-.08-1.23-.08-1.85a18.207 18.207 0 0 1 .27-3.1c2.58-15.25 22.73-31.9 22.73-31.9s20.15 16.65 22.73 31.9a18.207 18.207 0 0 1 .27 3.1z" fill="#87cee9"/><path d="m55 38c0 .62-.02 1.24-.08 1.85a4.863 4.863 0 0 1 -1.27.15c-3.62 0-3.62-3-7.23-3s-3.61 3-7.22 3-3.6-3-7.21-3-3.61 3-7.22 3-3.6-3-7.21-3-3.61 3-7.22 3a4.784 4.784 0 0 1 -1.26-.15c-.06-.61-.08-1.23-.08-1.85a18.207 18.207 0 0 1 .27-3.1 5.727 5.727 0 0 0 1.07.1c3.61 0 3.61-3 7.22-3s3.61 3 7.21 3 3.61-3 7.22-3 3.61 3 7.21 3 3.61-3 7.22-3 3.61 3 7.23 3a5.84 5.84 0 0 0 1.08-.1 18.207 18.207 0 0 1 .27 3.1z" fill="#e6f1fd"/><path d="m54.92 39.85a22.6 22.6 0 0 1 -1.74 7.13c-3.16-.25-3.31-2.98-6.76-2.98-3.61 0-3.61 3-7.22 3s-3.6-3-7.21-3-3.61 3-7.22 3-3.6-3-7.21-3c-3.44 0-3.6 2.73-6.74 2.98a22.6 22.6 0 0 1 -1.74-7.13 4.784 4.784 0 0 0 1.26.15c3.61 0 3.61-3 7.22-3s3.61 3 7.21 3 3.61-3 7.22-3 3.61 3 7.21 3 3.61-3 7.22-3 3.61 3 7.23 3a4.863 4.863 0 0 0 1.27-.15z" fill="#32b1cc"/><g fill="#e6f1fd"><path d="m32 58a20.065 20.065 0 0 1 -16.841-9.46l1.682-1.08a18.318 18.318 0 0 0 15.159 8.54z"/><path d="m34 56h2v2h-2z"/><path d="m33 19.25a4.008 4.008 0 0 1 -8 0c0-2.071 4-6.25 4-6.25s4 4.179 4 6.25z"/><path d="m41 25.143a3 3 0 0 1 -6 0c0-1.578 3-5.143 3-5.143s3 3.565 3 5.143z"/><path d="m47.122 28.479c-5.845-10.715-15.692-19.647-15.791-19.736l1.338-1.486c.414.372 10.2 9.241 16.209 20.264z"/><path d="m20 22h2v2h-2z"/><path d="m24 26h2v2h-2z"/></g></svg>