<svg height="512" viewBox="0 0 64 64" width="512" xmlns="http://www.w3.org/2000/svg"><path d="m49 47h-14l3-20h8z" fill="#aabece"/><path d="m33.917 41.165h12.166v2h-12.166z" fill="#f4f4e6" transform="matrix(.165 -.986 .986 .165 -8.172 74.681)"/><path d="m43.5 39.137h2v9.055h-2z" fill="#f4f4e6" transform="matrix(.994 -.11 .11 .994 -4.55 5.181)"/><path d="m54.049 42s-.546-4.872 2-8 7.305 1.264 3 4-5 4-5 4z" fill="#394d5c"/><path d="m31 44s.225-6.581-3-9c-4-3-7.514 2.624-3 5s6 4 6 4z" fill="#394d5c"/><path d="m50 31h2v2h-2z" fill="#394d5c"/><path d="m3 3h4v18h-4z" fill="#32b1cc"/><path d="m23 3h4v18h-4z" fill="#32b1cc"/><path d="m7 5h16v14h-16z" fill="#195c85"/><path d="m12 8h8v2h-8z" fill="#f4f4e6"/><path d="m27 5v14h8v8h14v-14a8 8 0 0 0 -8-8z" fill="#195c85"/><path d="m46 17h-2v-5a2 2 0 0 0 -2-2h-3v-2h3a4 4 0 0 1 4 4z" fill="#f4f4e6"/><path d="m44 19h2v2h-2z" fill="#f4f4e6"/><path d="m3 47h58v14h-58z" fill="#7d8d9c"/><path d="m43 52c-5.963 0-12-1.717-12-5h2c0 1.194 3.988 3 10 3s10-1.806 10-3h2c0 3.283-6.037 5-12 5z" fill="#cfdfe8"/><path d="m43 56c-5.2 0-9.947-1.552-12.688-4.151l1.376-1.449c2.343 2.22 6.677 3.6 11.312 3.6 4.729 0 9.106-1.422 11.424-3.711l1.406 1.422c-2.719 2.689-7.516 4.289-12.83 4.289z" fill="#cfdfe8"/><g fill="#394d5c"><path d="m6 50h12v2h-12z"/><path d="m11 56h10v2h-10z"/><path d="m56 56h5v2h-5z"/><path d="m23 52h4v2h-4z"/></g></svg>