<svg height="512" viewBox="0 0 64 64" width="512" xmlns="http://www.w3.org/2000/svg"><g id="Filled_outline" data-name="Filled outline"><path d="m49 47h-14l3-20h8z" fill="#aabece"/><path d="m33.917 40h12.166v2h-12.166z" fill="#f4f4e6" transform="matrix(.165 -.986 .986 .165 -7.023 73.708)"/><path d="m43.5 37.972h2v9.055h-2z" fill="#f4f4e6" transform="matrix(.994 -.11 .11 .994 -4.421 5.174)"/><path d="m54.049 42s-.546-4.872 2-8 7.305 1.264 3 4-5 4-5 4z" fill="#394d5c"/><path d="m31 44s.225-6.581-3-9c-4-3-7.514 2.624-3 5s6 4 6 4z" fill="#394d5c"/><path d="m50 31h2v2h-2z" fill="#394d5c"/><path d="m3 3h4v18h-4z" fill="#32b1cc"/><path d="m23 3h4v18h-4z" fill="#32b1cc"/><path d="m7 5h16v14h-16z" fill="#195c85"/><path d="m12 8h8v2h-8z" fill="#f4f4e6"/><path d="m27 5v14h8v8h14v-14a8 8 0 0 0 -8-8z" fill="#195c85"/><path d="m46 17h-2v-5a2 2 0 0 0 -2-2h-3v-2h3a4 4 0 0 1 4 4z" fill="#f4f4e6"/><path d="m44 19h2v2h-2z" fill="#f4f4e6"/><path d="m3 47h58v14h-58z" fill="#7d8d9c"/><path d="m43 52c-5.963 0-12-1.717-12-5h2c0 1.194 3.988 3 10 3s10-1.806 10-3h2c0 3.283-6.037 5-12 5z" fill="#cfdfe8"/><path d="m43 56c-5.2 0-9.947-1.552-12.688-4.151l1.376-1.449c2.343 2.22 6.677 3.6 11.312 3.6 4.729 0 9.106-1.422 11.424-3.711l1.406 1.422c-2.719 2.689-7.516 4.289-12.83 4.289z" fill="#cfdfe8"/><g fill="#394d5c"><path d="m6 50h12v2h-12z"/><path d="m11 56h10v2h-10z"/><path d="m56 56h5v2h-5z"/><path d="m23 52h4v2h-4z"/></g><path d="m53.056 42.111a.994.994 0 0 0 .775.849.953.953 0 0 0 .218.025 1.028 1.028 0 0 0 .859-.473c.008-.012.8-1.206 4.675-3.668a3.983 3.983 0 0 0 2.161-3.9 3.659 3.659 0 0 0 -2.662-2.9 3.609 3.609 0 0 0 -3.811 1.322c-2.777 3.417-2.239 8.534-2.215 8.745zm3.766-7.48a1.675 1.675 0 0 1 1.318-.712 1.578 1.578 0 0 1 .416.057 1.655 1.655 0 0 1 1.211 1.271c.1.653-.348 1.332-1.256 1.909a36.374 36.374 0 0 0 -3.452 2.444 9.258 9.258 0 0 1 1.763-4.969z"/><path d="m28.6 34.2a4.324 4.324 0 0 0 -4.575-.675 3.88 3.88 0 0 0 -2.142 3.4 4.451 4.451 0 0 0 2.651 3.957 24.021 24.021 0 0 1 5.733 3.794 1 1 0 0 0 1.733-.642c.007-.29.2-7.134-3.4-9.834zm-3.134 4.915a2.506 2.506 0 0 1 -1.583-2.159 1.863 1.863 0 0 1 1.017-1.636 1.774 1.774 0 0 1 .79-.181 2.9 2.9 0 0 1 1.7.661c1.613 1.209 2.27 3.915 2.5 6a37.657 37.657 0 0 0 -4.427-2.685z"/><path d="m32 33h2v2h-2z"/><path d="m50 31h2v2h-2z"/><path d="m12 8h8v2h-8z"/><path d="m44 12v5h2v-5a4 4 0 0 0 -4-4h-3v2h3a2 2 0 0 1 2 2z"/><path d="m44 19h2v2h-2z"/><path d="m61 46h-11.138l-2.7-18h1.838a1 1 0 0 0 1-1v-14a9.01 9.01 0 0 0 -9-9h-13v-1a1 1 0 0 0 -1-1h-4a1 1 0 0 0 -1 1v1h-14v-1a1 1 0 0 0 -1-1h-4a1 1 0 0 0 -1 1v18a1 1 0 0 0 1 1h4a1 1 0 0 0 1-1v-1h14v1a1 1 0 0 0 1 1h4a1 1 0 0 0 1-1v-1h6v7a1 1 0 0 0 1 1h1.839l-2.7 18h-31.139a1 1 0 0 0 -1 1v14a1 1 0 0 0 1 1h58a1 1 0 0 0 1-1v-14a1 1 0 0 0 -1-1zm-8.76 2c-1.426 1-4.772 2-9.24 2s-7.814-1-9.24-2zm-46.24-28h-2v-16h2zm2-2v-12h14v12zm18 2h-2v-16h2zm9-2h-7v-12h13a7.008 7.008 0 0 1 7 7v13h-12v-7a1 1 0 0 0 -1-1zm3.861 10h6.278l2.7 18h-1.939l-.9-8.11-1.988.22.871 7.89h-3.7l1.806-10.835-1.972-.33-1.864 11.165h-1.992zm-34.861 32v-12h27.214c1.095 2.628 6.464 4 11.786 4s10.691-1.372 11.786-4h5.214v8h-4v2h4v2z"/><path d="m43 54c-4.635 0-8.969-1.38-11.312-3.6l-1.376 1.452c2.741 2.596 7.488 4.148 12.688 4.148 5.314 0 10.111-1.6 12.83-4.289l-1.406-1.422c-2.318 2.289-6.695 3.711-11.424 3.711z"/><path d="m6 50h12v2h-12z"/><path d="m11 56h10v2h-10z"/><path d="m23 52h4v2h-4z"/></g></svg>